# xmcd
#
# Track frame offsets:
#	150
#	10813
#	20405
#	35287
#	46578
#	57660
#	70694
#	81790
#	93037
#	106496
#	119417
#	132974
#	140300
#	148147
#	157233
#	170120
#	178439
#	191301
#	202033
#	213699
#	224686
#	236415
#	246661
#	259513
#	270089
#	280468
#	291362
#	302221
#	314460
#	327595
#	334581
#	343751
#
# Disc length: 4692 seconds
#
# Revision: 0
# Processed by: cddbd v1.5.2PL0 Copyright (c) Steve Scherf et al.
# Submitted via: EasyCDDAExtractor 15.3.0.1
#
DISCID=f9125220
DTITLE=Tuttle Wesley - Detour CD 4
DYEAR=1900
DGENRE=Country
TTITLE0=Yesterday's Roses
TTITLE1=I'll Wait For You Dear
TTITLE2=This Lonely World
TTITLE3=Triflin' Gal
TTITLE4=I'll Never Do It Again
TTITLE5=I'm Lost Without You
TTITLE6=Headin' Down The Wrong Highway
TTITLE7=Back In The Saddle Again
TTITLE8=I'll Be Back
TTITLE9=There's A Rainbow On The Rio Colorado
TTITLE10=Year Ago Tonight
TTITLE11=You'll Be Sorry
TTITLE12=Silver Spurs (On The Golden Stairs)
TTITLE13=Don't Hang Around Me Anymore
TTITLE14=My Red River Rose
TTITLE15=Don't You Weep Anymore Darlin'
TTITLE16=I Wonder Where You Are Tonight
TTITLE17=Roly Poly
TTITLE18=Everytime I Dream You're My Darlin'
TTITLE19=Divorce Me C.O.D.
TTITLE20=Rose Of The Alamo
TTITLE21=I'm Tellin' You
TTITLE22=Chained To A Memory
TTITLE23=Missouri
TTITLE24=Just Hangin' On
TTITLE25=Playing Games With Me
TTITLE26=You Only Want Me When You're Lonely
TTITLE27=Ages And Ages Ago
TTITLE28=Last Mile
TTITLE29=Teardrops On My Heart
TTITLE30=Sweethearts On Parade
TTITLE31=Foggy River
EXTD=
EXTT0=
EXTT1=
EXTT2=
EXTT3=
EXTT4=
EXTT5=
EXTT6=
EXTT7=
EXTT8=
EXTT9=
EXTT10=
EXTT11=
EXTT12=
EXTT13=
EXTT14=
EXTT15=
EXTT16=
EXTT17=
EXTT18=
EXTT19=
EXTT20=
EXTT21=
EXTT22=
EXTT23=
EXTT24=
EXTT25=
EXTT26=
EXTT27=
EXTT28=
EXTT29=
EXTT30=
EXTT31=
PLAYORDER=
